<?xml version="1.0" encoding="utf-8"?>
<!-- Generator: Adobe Illustrator 16.0.0, SVG Export Plug-In . SVG Version: 6.00 Build 0)  -->
<!DOCTYPE svg PUBLIC "-//W3C//DTD SVG 1.1//EN" "http://www.w3.org/Graphics/SVG/1.1/DTD/svg11.dtd">
<svg version="1.1" id="Layer_1" xmlns="http://www.w3.org/2000/svg" xmlns:xlink="http://www.w3.org/1999/xlink" x="0px" y="0px"
	 width="150.125px" height="47.625px" viewBox="0 0 150.125 47.625" enable-background="new 0 0 150.125 47.625"
	 xml:space="preserve">
<g>
	<path fill="#FFFFFF" d="M13.344,39.889c-0.555-0.552-0.831-1.29-0.831-2.207V12.035H3.869c-1.899,0-2.85-0.839-2.85-2.518
		C1.019,7.839,1.969,7,3.869,7h23.415c1.9,0,2.849,0.839,2.849,2.517c0,1.679-0.949,2.518-2.849,2.518H18.64v25.647
		c0,0.917-0.277,1.655-0.832,2.207c-0.554,0.556-1.29,0.832-2.208,0.832C14.65,40.721,13.897,40.444,13.344,39.889z"/>
	<path fill="#FFFFFF" d="M49.202,34.736c0.333,0.412,0.499,0.967,0.499,1.662c0,0.982-0.586,1.806-1.757,2.47
		c-1.077,0.603-2.296,1.086-3.657,1.449c-1.361,0.364-2.66,0.546-3.895,0.546c-3.736,0-6.697-1.075-8.881-3.229
		s-3.278-5.097-3.278-8.835c0-2.373,0.476-4.479,1.426-6.315c0.949-1.836,2.287-3.262,4.013-4.274
		c1.725-1.013,3.681-1.521,5.865-1.521c2.09,0,3.91,0.459,5.461,1.377c1.552,0.918,2.755,2.217,3.61,3.895
		c0.855,1.679,1.282,3.658,1.282,5.937c0,1.362-0.602,2.043-1.804,2.043H34.075c0.19,2.184,0.808,3.792,1.852,4.82
		c1.045,1.028,2.565,1.543,4.56,1.543c1.013,0,1.907-0.125,2.683-0.38c0.775-0.253,1.655-0.601,2.636-1.045
		c0.95-0.506,1.646-0.759,2.089-0.759C48.435,34.12,48.87,34.324,49.202,34.736z M35.809,22.388
		c-0.967,1.014-1.544,2.469-1.734,4.37h10.734c-0.064-1.932-0.539-3.396-1.424-4.394c-0.888-0.998-2.122-1.496-3.705-1.496
		C38.064,20.868,36.774,21.375,35.809,22.388z"/>
	<path fill="#FFFFFF" d="M58.938,39.392c-1.757-0.982-3.111-2.376-4.061-4.18c-0.95-1.806-1.425-3.911-1.425-6.317
		s0.5-4.535,1.496-6.388c0.998-1.853,2.398-3.285,4.203-4.298c1.805-1.013,3.878-1.521,6.222-1.521c1.235,0,2.478,0.175,3.729,0.522
		c1.25,0.349,2.351,0.824,3.301,1.425c1.012,0.665,1.519,1.504,1.519,2.518c0,0.697-0.166,1.259-0.498,1.686
		c-0.333,0.427-0.768,0.641-1.306,0.641c-0.349,0-0.712-0.079-1.093-0.237c-0.379-0.158-0.76-0.348-1.14-0.57
		c-0.696-0.411-1.361-0.736-1.995-0.974c-0.633-0.238-1.361-0.356-2.185-0.356c-1.963,0-3.475,0.642-4.536,1.924
		c-1.062,1.282-1.591,3.126-1.591,5.532c0,2.376,0.529,4.203,1.591,5.486c1.061,1.283,2.572,1.924,4.536,1.924
		c0.791,0,1.497-0.119,2.113-0.356c0.618-0.238,1.307-0.562,2.066-0.974c0.476-0.285,0.887-0.498,1.235-0.642
		c0.349-0.142,0.696-0.212,1.045-0.212c0.505,0,0.933,0.221,1.282,0.664c0.348,0.443,0.522,0.997,0.522,1.662
		c0,0.538-0.119,1.006-0.356,1.401c-0.237,0.396-0.625,0.752-1.164,1.068c-0.981,0.635-2.122,1.133-3.419,1.496
		c-1.299,0.364-2.629,0.546-3.989,0.546C62.729,40.863,60.696,40.373,58.938,39.392z"/>
	<path fill="#FFFFFF" d="M99.521,37.919c0,0.729-0.262,1.378-0.783,1.946c-0.521,0.57-1.133,0.855-1.828,0.855
		c-0.697,0-1.348-0.285-1.947-0.855L83.848,29.798v8.121c0,0.918-0.285,1.615-0.854,2.089c-0.57,0.476-1.281,0.713-2.139,0.713
		c-0.854,0-1.559-0.237-2.113-0.713c-0.555-0.474-0.83-1.171-0.83-2.089V9.564c0-0.917,0.275-1.614,0.83-2.089
		c0.555-0.475,1.26-0.713,2.113-0.713c0.857,0,1.568,0.238,2.139,0.713c0.568,0.476,0.854,1.172,0.854,2.089v17.858l10.166-9.736
		c0.568-0.57,1.217-0.855,1.945-0.855s1.363,0.269,1.9,0.808c0.539,0.539,0.809,1.172,0.809,1.899c0,0.729-0.303,1.394-0.902,1.995
		l-7.457,6.935l8.264,7.408C99.205,36.479,99.521,37.158,99.521,37.919z"/>
	<path fill="#FFFFFF" d="M123.887,17.543c0.539,0.507,0.807,1.188,0.807,2.042v18.429c0,0.822-0.277,1.488-0.83,1.993
		c-0.555,0.507-1.275,0.76-2.162,0.76c-0.855,0-1.535-0.237-2.041-0.712c-0.508-0.475-0.76-1.123-0.76-1.946v-1.188
		c-0.73,1.268-1.711,2.241-2.945,2.921c-1.234,0.681-2.627,1.021-4.18,1.021c-5.699,0-8.549-3.197-8.549-9.594V19.586
		c0-0.855,0.268-1.536,0.807-2.042c0.539-0.506,1.252-0.76,2.139-0.76c0.916,0,1.645,0.253,2.184,0.76
		c0.539,0.507,0.807,1.188,0.807,2.042v11.731c0,1.646,0.332,2.865,0.998,3.656c0.664,0.791,1.711,1.188,3.135,1.188
		c1.646,0,2.969-0.547,3.965-1.638c0.998-1.094,1.498-2.542,1.498-4.347V19.586c0-0.855,0.268-1.536,0.807-2.042
		c0.539-0.506,1.25-0.76,2.137-0.76C122.619,16.784,123.348,17.037,123.887,17.543z"/>
	<path fill="#FFFFFF" d="M130.916,38.821c-1.014-0.603-1.52-1.456-1.52-2.565c0-0.634,0.174-1.146,0.521-1.543
		s0.775-0.593,1.283-0.593c0.537,0,1.281,0.253,2.23,0.759c1.014,0.476,1.939,0.839,2.779,1.092
		c0.838,0.255,1.908,0.381,3.207,0.381c1.328,0,2.365-0.222,3.109-0.665s1.117-1.062,1.117-1.853c0-0.538-0.152-0.965-0.451-1.282
		c-0.303-0.315-0.84-0.608-1.617-0.879c-0.775-0.269-1.953-0.576-3.537-0.926c-2.818-0.57-4.838-1.377-6.055-2.423
		c-1.221-1.045-1.83-2.485-1.83-4.321c0-1.394,0.412-2.652,1.236-3.776s1.953-1.995,3.396-2.612
		c1.439-0.617,3.078-0.926,4.914-0.926c1.33,0,2.613,0.167,3.848,0.499c1.234,0.333,2.344,0.815,3.324,1.448
		c1.014,0.634,1.52,1.473,1.52,2.518c0,0.633-0.174,1.164-0.521,1.591c-0.35,0.428-0.777,0.641-1.283,0.641
		c-0.348,0-0.688-0.07-1.021-0.213c-0.332-0.143-0.752-0.356-1.258-0.641c-0.918-0.476-1.711-0.832-2.375-1.069
		c-0.664-0.237-1.488-0.355-2.469-0.355c-1.172,0-2.098,0.237-2.779,0.712c-0.682,0.475-1.021,1.124-1.021,1.947
		c0,0.792,0.348,1.394,1.047,1.806c0.693,0.41,2.039,0.821,4.035,1.234c2.121,0.443,3.783,0.949,4.988,1.519
		c1.201,0.57,2.066,1.283,2.588,2.138c0.521,0.855,0.783,1.947,0.783,3.278c0,2.152-0.895,3.878-2.684,5.176
		c-1.789,1.299-4.17,1.947-7.146,1.947C135.822,40.863,133.035,40.184,130.916,38.821z"/>
</g>
</svg>
