<?xml version="1.0" encoding="UTF-8"?><svg enable-background="new 0 0 167.531 152.688" version="1.1" viewBox="0 0 167.53 152.69" xml:space="preserve" xmlns="http://www.w3.org/2000/svg"> <g fill="currentColor"> <circle cx="2.992" cy="150.03" r="1.552"/> <circle cx="16.477" cy="150.03" r="1.552"/> <circle cx="29.962" cy="150.03" r="1.552"/> <circle cx="43.448" cy="150.03" r="1.552"/> <circle cx="56.932" cy="150.03" r="1.552"/> <circle cx="70.417" cy="150.03" r="1.552"/> <circle cx="83.902" cy="150.03" r="1.552"/> <circle cx="97.387" cy="150.03" r="1.552"/> <circle cx="110.87" cy="150.03" r="1.553"/> <circle cx="124.36" cy="150.03" r="1.553"/> <circle cx="137.84" cy="150.03" r="1.553"/> <circle cx="151.33" cy="150.03" r="1.553"/> <circle cx="164.81" cy="150.03" r="1.553"/> <circle cx="2.992" cy="136.68" r="1.552"/> <circle cx="16.477" cy="136.68" r="1.552"/> <circle cx="29.962" cy="136.68" r="1.552"/> <circle cx="43.448" cy="136.68" r="1.552"/> <circle cx="56.932" cy="136.68" r="1.552"/> <circle cx="70.417" cy="136.68" r="1.552"/> <circle cx="83.902" cy="136.68" r="1.552"/> <circle cx="97.387" cy="136.68" r="1.552"/> <circle cx="110.87" cy="136.68" r="1.553"/> <circle cx="124.36" cy="136.68" r="1.553"/> <circle cx="137.84" cy="136.68" r="1.553"/> <circle cx="151.33" cy="136.68" r="1.553"/> <circle cx="164.81" cy="136.68" r="1.553"/> <circle cx="2.992" cy="123.33" r="1.552"/> <circle cx="16.477" cy="123.33" r="1.552"/> <circle cx="29.962" cy="123.33" r="1.552"/> <circle cx="43.448" cy="123.33" r="1.552"/> <circle cx="56.932" cy="123.33" r="1.552"/> <circle cx="70.417" cy="123.33" r="1.552"/> <circle cx="83.902" cy="123.33" r="1.552"/> <circle cx="97.387" cy="123.33" r="1.552"/> <circle cx="110.87" cy="123.33" r="1.553"/> <circle cx="124.36" cy="123.33" r="1.553"/> <circle cx="137.84" cy="123.33" r="1.553"/> <circle cx="151.33" cy="123.33" r="1.553"/> <circle cx="164.81" cy="123.33" r="1.553"/> <circle cx="2.992" cy="109.98" r="1.552"/> <circle cx="16.477" cy="109.98" r="1.552"/> <circle cx="29.962" cy="109.98" r="1.552"/> <circle cx="43.448" cy="109.98" r="1.552"/> <circle cx="56.932" cy="109.98" r="1.552"/> <circle cx="70.417" cy="109.98" r="1.552"/> <circle cx="83.902" cy="109.98" r="1.552"/> <circle cx="97.387" cy="109.98" r="1.552"/> <circle cx="110.87" cy="109.98" r="1.553"/> <circle cx="124.36" cy="109.98" r="1.553"/> <circle cx="137.84" cy="109.98" r="1.553"/> <circle cx="151.33" cy="109.98" r="1.553"/> <circle cx="164.81" cy="109.98" r="1.553"/> <circle cx="2.992" cy="96.627" r="1.552"/> <circle cx="16.477" cy="96.627" r="1.552"/> <circle cx="29.962" cy="96.627" r="1.552"/> <circle cx="43.448" cy="96.627" r="1.552"/> <circle cx="56.932" cy="96.627" r="1.552"/> <circle cx="70.417" cy="96.627" r="1.552"/> <circle cx="83.902" cy="96.627" r="1.552"/> <circle cx="97.387" cy="96.627" r="1.552"/> <circle cx="110.87" cy="96.627" r="1.553"/> <circle cx="124.36" cy="96.627" r="1.553"/> <circle cx="137.84" cy="96.627" r="1.553"/> <circle cx="151.33" cy="96.627" r="1.553"/> <circle cx="164.81" cy="96.627" r="1.553"/> <circle cx="2.992" cy="83.275" r="1.552"/> <circle cx="16.477" cy="83.275" r="1.552"/> <circle cx="29.962" cy="83.275" r="1.552"/> <circle cx="43.448" cy="83.275" r="1.552"/> <circle cx="56.932" cy="83.275" r="1.552"/> <circle cx="70.417" cy="83.275" r="1.552"/> <circle cx="83.902" cy="83.275" r="1.552"/> <circle cx="97.387" cy="83.275" r="1.552"/> <circle cx="110.87" cy="83.275" r="1.553"/> <circle cx="124.36" cy="83.275" r="1.553"/> <circle cx="137.84" cy="83.275" r="1.553"/> <circle cx="151.33" cy="83.275" r="1.553"/> <circle cx="164.81" cy="83.275" r="1.553"/> <circle cx="2.992" cy="69.923" r="1.552"/> <circle cx="16.477" cy="69.923" r="1.552"/> <circle cx="29.962" cy="69.923" r="1.552"/> <circle cx="43.448" cy="69.923" r="1.552"/> <circle cx="56.932" cy="69.923" r="1.552"/> <circle cx="70.417" cy="69.923" r="1.552"/> <circle cx="83.902" cy="69.923" r="1.552"/> <circle cx="97.387" cy="69.923" r="1.552"/> <circle cx="110.87" cy="69.923" r="1.553"/> <circle cx="124.36" cy="69.923" r="1.553"/> <circle cx="137.84" cy="69.923" r="1.553"/> <circle cx="151.33" cy="69.923" r="1.553"/> <circle cx="164.81" cy="69.923" r="1.553"/> <circle cx="2.992" cy="56.571" r="1.552"/> <circle cx="16.477" cy="56.571" r="1.552"/> <circle cx="29.962" cy="56.571" r="1.552"/> <circle cx="43.448" cy="56.571" r="1.552"/> <circle cx="56.932" cy="56.571" r="1.552"/> <circle cx="70.417" cy="56.571" r="1.552"/> <circle cx="83.902" cy="56.571" r="1.552"/> <circle cx="97.387" cy="56.571" r="1.552"/> <circle cx="110.87" cy="56.571" r="1.553"/> <circle cx="124.36" cy="56.571" r="1.553"/> <circle cx="137.84" cy="56.571" r="1.553"/> <circle cx="151.33" cy="56.571" r="1.553"/> <circle cx="164.81" cy="56.571" r="1.553"/> <circle cx="2.992" cy="43.219" r="1.552"/> <circle cx="16.477" cy="43.219" r="1.552"/> <circle cx="29.962" cy="43.219" r="1.552"/> <circle cx="43.448" cy="43.219" r="1.552"/> <circle cx="56.932" cy="43.219" r="1.552"/> <circle cx="70.417" cy="43.219" r="1.552"/> <circle cx="83.902" cy="43.219" r="1.552"/> <circle cx="97.387" cy="43.219" r="1.552"/> <circle cx="110.87" cy="43.219" r="1.553"/> <circle cx="124.36" cy="43.219" r="1.553"/> <circle cx="137.84" cy="43.219" r="1.553"/> <circle cx="151.33" cy="43.219" r="1.553"/> <circle cx="164.81" cy="43.219" r="1.553"/> <circle cx="2.992" cy="29.868" r="1.552"/> <circle cx="16.477" cy="29.868" r="1.552"/> <circle cx="29.962" cy="29.868" r="1.552"/> <circle cx="43.448" cy="29.868" r="1.552"/> <circle cx="56.932" cy="29.868" r="1.552"/> <circle cx="70.417" cy="29.868" r="1.552"/> <circle cx="83.902" cy="29.868" r="1.552"/> <circle cx="97.387" cy="29.868" r="1.552"/> <circle cx="110.87" cy="29.868" r="1.553"/> <circle cx="124.36" cy="29.868" r="1.553"/> <circle cx="137.84" cy="29.868" r="1.553"/> <circle cx="151.33" cy="29.868" r="1.553"/> <circle cx="164.81" cy="29.868" r="1.553"/> <circle cx="2.992" cy="16.516" r="1.552"/> <circle cx="16.477" cy="16.516" r="1.552"/> <circle cx="29.962" cy="16.516" r="1.552"/> <circle cx="43.448" cy="16.516" r="1.552"/> <circle cx="56.932" cy="16.516" r="1.552"/> <circle cx="70.417" cy="16.516" r="1.552"/> <circle cx="83.902" cy="16.516" r="1.552"/> <circle cx="97.387" cy="16.516" r="1.552"/> <circle cx="110.87" cy="16.516" r="1.553"/> <circle cx="124.36" cy="16.516" r="1.553"/> <circle cx="137.84" cy="16.516" r="1.553"/> <circle cx="151.33" cy="16.516" r="1.553"/> <circle cx="164.81" cy="16.516" r="1.553"/> <circle cx="2.992" cy="3.164" r="1.552"/> <circle cx="16.477" cy="3.164" r="1.552"/> <circle cx="29.962" cy="3.164" r="1.552"/> <circle cx="43.448" cy="3.164" r="1.552"/> <circle cx="56.932" cy="3.164" r="1.552"/> <circle cx="70.417" cy="3.164" r="1.552"/> <circle cx="83.902" cy="3.164" r="1.552"/> <circle cx="97.387" cy="3.164" r="1.552"/> <circle cx="110.87" cy="3.164" r="1.553"/> <circle cx="124.36" cy="3.164" r="1.553"/> <circle cx="137.84" cy="3.164" r="1.553"/> <circle cx="151.33" cy="3.164" r="1.553"/> <circle cx="164.81" cy="3.164" r="1.553"/> </g></svg>