<?xml version="1.0" encoding="utf-8"?>
<svg version="1.1" id="Layer_1" xmlns="http://www.w3.org/2000/svg" xmlns:xlink="http://www.w3.org/1999/xlink" x="0px" y="0px" viewBox="0 0 317.699 430.973" enable-background="new 0 0 317.699 430.973" xml:space="preserve">
    <path fill="#5C5C5C" d="M97.862,18.75c35.174-26,105.429-3.021,118.324,37.776c4.74,15.003,3.348,31.748,9.956,46.294
	c7.818,17.214,22.969,30.584,36.94,42.654c20.572,17.77,45.83,33.298,49.36,61.875c4.091,33.143-18.409,54.407-33.099,81.003
	c-16.839,30.485-15.6,60.67-42.034,87.753c-32.072,32.859-74.376,47.001-119.452,47.185c-13.315,0.059-25.709,2.078-37.337-3.704
	c-28.42-14.136-44.972-57.884-50.901-85.957C17.114,274.419-2.938,211.354,8.03,150.102c6.048-33.766,23.032-70.724,47.568-94.506
	C66.137,45.381,77.964,36.589,97.862,18.75z" />
</svg>