<?xml version="1.0" encoding="utf-8"?>
<svg version="1.1" id="Layer_1" xmlns="http://www.w3.org/2000/svg" xmlns:xlink="http://www.w3.org/1999/xlink" x="0px" y="0px" viewBox="0 0 118.667 117.699" enable-background="new 0 0 118.667 117.699" xml:space="preserve">
    <g id="XMLID_1421_">
        <g id="XMLID_1473_">
            <circle id="XMLID_1477_" fill="currentColor" cx="35.498" cy="108.906" r="2.421" />
            <circle id="XMLID_1476_" fill="currentColor" cx="50.99" cy="108.906" r="2.421" />
            <circle id="XMLID_1475_" fill="currentColor" cx="66.483" cy="108.906" r="2.421" />
            <circle id="XMLID_1474_" fill="currentColor" cx="81.977" cy="108.906" r="2.421" />
        </g>
        <g id="XMLID_1466_">
            <circle id="XMLID_1472_" fill="currentColor" cx="20.005" cy="94.283" r="2.421" />
            <circle id="XMLID_1471_" fill="currentColor" cx="35.498" cy="94.283" r="2.421" />
            <circle id="XMLID_1470_" fill="currentColor" cx="50.99" cy="94.283" r="2.421" />
            <circle id="XMLID_1469_" fill="currentColor" cx="66.483" cy="94.283" r="2.421" />
            <circle id="XMLID_1468_" fill="currentColor" cx="81.977" cy="94.283" r="2.421" />
            <circle id="XMLID_1467_" fill="currentColor" cx="97.469" cy="94.283" r="2.421" />
        </g>
        <g id="XMLID_1459_">
            <circle id="XMLID_1465_" fill="currentColor" cx="20.005" cy="79.661" r="2.421" />
            <circle id="XMLID_1464_" fill="currentColor" cx="35.498" cy="79.661" r="2.421" />
            <circle id="XMLID_1463_" fill="currentColor" cx="50.99" cy="79.661" r="2.421" />
            <circle id="XMLID_1462_" fill="currentColor" cx="66.483" cy="79.661" r="2.421" />
            <circle id="XMLID_1461_" fill="currentColor" cx="81.977" cy="79.661" r="2.421" />
            <circle id="XMLID_1460_" fill="currentColor" cx="97.469" cy="79.661" r="2.421" />
        </g>
        <g id="XMLID_1450_">
            <circle id="XMLID_1458_" fill="currentColor" cx="4.512" cy="65.039" r="2.421" />
            <circle id="XMLID_1457_" fill="currentColor" cx="20.005" cy="65.039" r="2.421" />
            <circle id="XMLID_1456_" fill="currentColor" cx="35.498" cy="65.039" r="2.421" />
            <circle id="XMLID_1455_" fill="currentColor" cx="50.99" cy="65.039" r="2.421" />
            <circle id="XMLID_1454_" fill="currentColor" cx="66.483" cy="65.039" r="2.421" />
            <circle id="XMLID_1453_" fill="currentColor" cx="81.977" cy="65.039" r="2.421" />
            <circle id="XMLID_1452_" fill="currentColor" cx="97.469" cy="65.039" r="2.421" />
            <circle id="XMLID_1451_" fill="currentColor" cx="112.962" cy="65.039" r="2.421" />
        </g>
        <g id="XMLID_1441_">
            <circle id="XMLID_1449_" fill="currentColor" cx="4.512" cy="50.416" r="2.421" />
            <circle id="XMLID_1448_" fill="currentColor" cx="20.005" cy="50.416" r="2.421" />
            <circle id="XMLID_1447_" fill="currentColor" cx="35.498" cy="50.416" r="2.421" />
            <circle id="XMLID_1446_" fill="currentColor" cx="50.99" cy="50.416" r="2.421" />
            <circle id="XMLID_1445_" fill="currentColor" cx="66.483" cy="50.416" r="2.421" />
            <circle id="XMLID_1444_" fill="currentColor" cx="81.977" cy="50.416" r="2.421" />
            <circle id="XMLID_1443_" fill="currentColor" cx="97.469" cy="50.416" r="2.421" />
            <circle id="XMLID_1442_" fill="currentColor" cx="112.962" cy="50.416" r="2.421" />
        </g>
        <g id="XMLID_1434_">
            <circle id="XMLID_1440_" fill="currentColor" cx="20.005" cy="35.793" r="2.421" />
            <circle id="XMLID_1439_" fill="currentColor" cx="35.498" cy="35.793" r="2.421" />
            <circle id="XMLID_1438_" fill="currentColor" cx="50.99" cy="35.793" r="2.421" />
            <circle id="XMLID_1437_" fill="currentColor" cx="66.483" cy="35.793" r="2.421" />
            <circle id="XMLID_1436_" fill="currentColor" cx="81.977" cy="35.793" r="2.421" />
            <circle id="XMLID_1435_" fill="currentColor" cx="97.469" cy="35.793" r="2.421" />
        </g>
        <g id="XMLID_1427_">
            <circle id="XMLID_1433_" fill="currentColor" cx="20.005" cy="21.171" r="2.421" />
            <circle id="XMLID_1432_" fill="currentColor" cx="35.498" cy="21.171" r="2.421" />
            <circle id="XMLID_1431_" fill="currentColor" cx="50.99" cy="21.171" r="2.421" />
            <circle id="XMLID_1430_" fill="currentColor" cx="66.483" cy="21.171" r="2.421" />
            <circle id="XMLID_1429_" fill="currentColor" cx="81.977" cy="21.171" r="2.421" />
            <circle id="XMLID_1428_" fill="currentColor" cx="97.469" cy="21.171" r="2.421" />
        </g>
        <g id="XMLID_1422_">
            <circle id="XMLID_1426_" fill="currentColor" cx="35.498" cy="6.549" r="2.421" />
            <circle id="XMLID_1425_" fill="currentColor" cx="50.99" cy="6.549" r="2.421" />
            <circle id="XMLID_1424_" fill="currentColor" cx="66.483" cy="6.549" r="2.421" />
            <circle id="XMLID_1423_" fill="currentColor" cx="81.977" cy="6.549" r="2.421" />
        </g>
    </g>
</svg>