<?xml version="1.0" encoding="utf-8"?>
<svg version="1.1" id="Layer_1" xmlns="http://www.w3.org/2000/svg" xmlns:xlink="http://www.w3.org/1999/xlink" x="0px" y="0px"
	 viewBox="0 28.5 612 90" enable-background="new 0 28.5 612 90" xml:space="preserve">
<path fill="currentColor" d="M611.987,118.5v-5.525c-0.52-0.076-1.039-0.161-1.559-0.184c0.013-0.157,0.018-0.318,0.022-0.479
	c-1.018-0.757-3.132,1.595-3.428-1.205l0.004,0.004c0.444,0.188,0.937,0.708,1.358,0.363c0.532-0.439-0.216-0.829-0.31-1.268
	c-0.09-0.864,0.04-2.002-1.434-1.174l0,0c-1.196,0.466-2.361,0.354-3.508-0.179c-0.865-0.018-1.766-0.313-2.541,0.336
	c-1.07,0.103-2.029,0.403-2.706,1.187c-0.286-0.524-0.604-0.937-1.285-0.381c-0.422,0.618-0.838,1.237-1.259,1.851
	c-0.327,0.327-0.807,0.421-1.134,0.748c-0.027,0.022-0.054,0.049-0.081,0.076c-0.277-0.072-0.546-0.121-0.762-0.031
	c-1.931,0.789-2.182-0.121-1.926-1.721c0.058-0.376-0.022-0.771-0.054-1.631c-1.748,2.518-2.16,0.632-2.854-0.354
	c-0.147-0.139-0.313-0.202-0.502-0.193c-0.103-0.426-0.349-0.578-0.743-0.443c-0.059-0.542-0.417-1.004-0.601-1.51
	c-0.018-0.134-0.031-0.273-0.049-0.407c-0.815,0.089-1.631,0.184-2.446,0.273l0,0c0.031-1.667-1.421-2.218-2.37-3.149
	c-0.05,0.112-0.081,0.233-0.09,0.358c-0.099,0.587-0.524,0.869-1.008,1.102l0,0c-0.323-0.004-0.649-0.004-0.973-0.009l0,0l0,0
	c-0.35-0.22-0.703-0.444-1.053-0.663l0,0l0,0c0.395-1.031-0.703-1.622-0.744-2.527c0.346-0.184,0.896-0.444,0.727-0.797
	c-0.363-0.739-1.143-0.054-1.698-0.278c-0.206,0.215-0.291,0.439-0.237,0.672c-0.538,0.206-0.547,0.883-0.91,1.246
	c-0.134,0.175-0.269,0.349-0.402,0.524l0,0c-0.09,0.108-0.152,0.229-0.193,0.363l0,0c-1.442-0.147-1.541-1.527-2.204-2.392
	c-0.026-0.049-0.063-0.094-0.116-0.139c0,0,0-0.004-0.005-0.004c0.157-1.111,0.771-2.518-1.384-2.137
	c-0.081,0.13-0.112,0.273-0.095,0.426c-0.018,0.336-0.035,0.672-0.054,1.008l0,0c-0.788,0.452-1.138,1.129-1.044,2.034
	c-0.188,0.327-0.376,0.654-0.56,0.981c-1.582,0.13-1.6,1.281-1.591,2.441l0,0l0,0c-0.067,0.121-0.121,0.247-0.161,0.381l0,0
	c-0.892-0.26-1.778-0.466-2.455,0.453c-0.35,0.318-0.703,0.632-1.053,0.95c-0.52,0.654-1.116,0.726-1.994,0.82
	c-1.532,0.166-1.563-1.371-2.303-1.953c0.301-0.345,0.573-0.704,0.668-1.178c0.009-0.242-0.027-0.475-0.121-0.704
	c-1.044-0.878-0.551-2.083-0.699-3.163c-0.134-1.017-0.206-1.04-1.143-0.295c-0.013-0.063-0.035-0.125-0.067-0.188
	c-0.116-0.094-0.196-0.188-0.25-0.282c0.094-0.175,0.188-0.35,0.282-0.524c0.407-0.587,0.689-1.147-0.117-1.438
	c-0.004-0.018-0.009-0.036-0.018-0.054c-0.322-0.784-1.125-1.111-1.631-1.72c-0.435-0.408-0.896-0.739-1.546-0.533
	c-0.336,0.511-0.537,1.12-1.075,1.487c-0.345,0.318-0.686,0.641-1.03,0.959c-0.135,0.13-0.233,0.278-0.318,0.435
	c-0.726-0.036-1.46-0.363-2.177,0.04c-0.247,0.278-0.493,0.556-0.739,0.833c-0.516,0.744-1.591,0.954-1.859,1.931
	c-0.095,0.555,0.045,1.03,0.385,1.438c-0.184,0.054-0.317,0.206-0.43,0.403c-0.036,0.103-0.054,0.206-0.063,0.309
	c-0.233,0.099-0.467,0.197-0.699,0.296l0,0c-1.219-0.533-1.523-1.394-0.919-2.576c-0.479-0.036-0.954-0.067-1.434-0.103l0,0
	c-0.327-0.005-0.649-0.009-0.977-0.018l0,0c-0.139-0.022-0.282-0.045-0.421-0.067c-2.155-0.829-4.306-1.653-6.461-2.482
	c-0.184,0.036-0.367,0.067-0.555,0.103c-0.188-0.224-0.377-0.448-0.565-0.672c1.111-3.526-1.612-2.325-3.167-2.572l0,0
	c-0.188-0.036-0.381-0.076-0.569-0.112c-0.681,0.466-1.361,0.936-2.038,1.402c-0.085,0.13-0.144,0.269-0.175,0.421
	c-0.479,0.166-0.963,0.327-1.442,0.493c0.022,0.157,0.004,0.314-0.05,0.461l0,0l0,0c-0.533,0.188-1.062,0.381-1.595,0.569
	c-0.596-0.206-1.38-0.22-1.371-1.12c0.018-1.958-1.16-0.9-1.962-0.798l0,0c-0.318-0.385-0.659-0.407-1.021-0.067l0,0
	c-0.623-0.511-1.246-1.026-1.864-1.537c-0.004-0.005-0.009-0.009-0.014-0.014c0.238-0.143,0.677-0.3,0.668-0.43
	c-0.045-0.69-0.632-0.435-1.039-0.497l0,0c-1.591-0.498-1.842,1.116-2.729,1.725l0,0l0,0c-0.059,0.005-0.117,0.009-0.18,0.014
	c-0.085-0.099-0.184-0.193-0.291-0.282c-0.229-0.067-0.457-0.054-0.677,0.045c-0.134-0.032-0.26-0.005-0.372,0.081
	c-0.309,0.018-0.622,0.036-0.932,0.054c-0.426,0.726-0.855,1.447-1.281,2.173c-1.053,0.47-2.074,0.78-2.81-0.511l0.05-0.237
	l-0.067-0.238l0.09-0.166l-0.036-0.188c0.722-1.721,0.682-3.463,0.377-5.327c-1.094,0.717,0.103,2.675-1.837,2.581
	c-1.264,0.031-2.24,0.627-3.069,1.528c-0.121,0.166-0.206,0.345-0.256,0.529c-0.636-1.152-1.465-2.178-2.195-3.266
	c-0.232-0.596-0.591-1.076-1.231-1.282c-0.372-0.103-0.744-0.112-1.116-0.009c-0.591,0.206-1.021,0.641-1.478,1.04
	c-0.247,1.003-1.402,1.201-1.999,1.891c-0.035-0.009-0.071-0.014-0.107-0.027c-0.251-0.13-0.394-0.341-0.488-0.587
	c-0.049-0.17-0.103-0.345-0.175-0.511c-0.099-0.269-0.232-0.515-0.416-0.739c-0.121-0.148-0.251-0.292-0.399-0.417
	c-0.215-0.21-0.295-0.493-0.407-0.761c-0.157-0.663-0.551-1.206-0.909-1.765c-0.292-0.381-0.512-0.82-0.959-1.053
	c-0.225-0.112-0.466-0.188-0.717-0.21c-0.964-0.014-1.689,0.466-2.325,1.129c-0.278,0.52-0.578,1.021-0.73,1.595
	c-0.807-0.381-1.402-1.035-2.008-1.671c-0.111-0.282-0.232-0.564-0.362-0.842c-0.282-0.345-0.641-0.461-1.03-0.497
	c0.013-0.054,0.026-0.108,0.035-0.166c0.005-0.255-0.049-0.501-0.165-0.726c-1.752-1.783-3.473-1.161-5.188,0.058
	c-0.354,0.313-0.708,0.623-1.062,0.937c-1.098,1.51-2.375,0.192-3.566,0.229l0.036,0.081c-0.282,0.17-0.628,0.255-0.807,0.569
	c-1.111-0.085-1.989-0.618-2.671-1.523c-0.618-0.82-1.281-1.532-2.437-1.424c-0.13-0.063-0.27-0.099-0.412-0.112l0,0l-0.027-0.251
	l0.04-0.246c-0.152-0.17-0.3-0.341-0.452-0.506c-0.381-0.287-0.734-0.313-1.035,0.117c-0.345,0.39-0.689,0.779-1.034,1.169
	c-0.668-0.435-1.412-0.21-2.146-0.049c-0.139,0.009-0.277,0.036-0.412,0.076c-0.224,1.143-0.452,2.285-0.677,3.432
	c-0.766-0.027-0.291-2.29-1.595-0.694c-0.985-1.286-1.953-2.621-3.897-1.685c-0.628,0.748-1.094,1.662-2.106,2.007
	c-0.712,0.059-1.469-0.027-2.056,0.412c-0.01-0.376-0.014-0.748-0.022-1.125c-0.426-0.179-1.13-0.269-1.219-0.551
	c-0.251-0.807,0.918-0.426,1.062-1.017c-0.197-0.515-0.395-1.03-0.587-1.546c-0.663,0.292-0.658,1.34-1.55,1.38l0,0
	c-0.005-0.466-0.01-0.927-0.019-1.393c-0.654-0.721-1.425-1.062-2.396-0.73l0,0c-1.255,0.323-2.366-0.345-3.549-0.52
	c0.027-0.224,0.059-0.448,0.085-0.668c-0.726,0.031-1.451,0.059-2.177,0.09l-0.13,0.076l0,0c-1.608,1.384-1.17-1.241-2.142-1.098
	c-0.157,0.076-0.313,0.157-0.471,0.233c0.561,2.415-1.196,2.204-2.652,2.338c-0.17-0.058-0.336-0.112-0.506-0.17l0,0
	c-0.009-0.157-0.036-0.309-0.076-0.461c0.035-0.488-0.13-0.842-0.632-0.977c-0.403,0.086-0.802,0.171-1.205,0.261
	c-0.229-1.729-1.103-3.146-2.2-4.449c-0.242,0.251-0.483,0.506-0.73,0.757c-0.125-0.009-0.246-0.031-0.367-0.054
	c-0.206-0.309-0.412-0.613-0.618-0.923c-1.416-0.658-1.972-1.653-1.349-3.199c0.336-0.828,0.381-1.64-0.717-1.989
	c-0.341,0.01-0.681,0.019-1.021,0.027c-0.578-1.321,0.852-2.997-0.73-4.14c0.193-0.381,0.524-0.767-0.009-1.143
	c-0.461,0.313-0.923,0.627-1.389,0.94c-0.381-1.062-1.47-0.143-2.093-0.523c0.229-1.497-3.108-1.596-1.191-3.611
	c-1.21-0.318-1.146,0.681-1.595,1.044c0.184,0.802-0.265,1.34-0.775,1.851l0.229-0.014c-0.412,0.654-0.824,1.313-1.236,1.967
	c-0.202,0.663-0.403,1.321-0.604,1.984c-0.072,0.157-0.14,0.318-0.211,0.476c-1.143,1.228-1.402,2.912-2.218,4.305
	c-0.502,1.376-2.285,0.063-2.827,1.349c-0.009,0.05-0.004,0.095-0.009,0.14c-0.381,0.107-0.703,0.295-0.995,0.533
	c0.054-0.73,0.152-1.479-0.932-1.689c-0.927-0.184-1.971-0.573-2.751,0.071c-0.184-0.582-0.658-0.972-1.219-1.304
	c-0.219-0.089-0.443-0.147-0.681-0.17c-1.993-0.166-3.347-1.515-4.825-2.63c-0.556,0.067-0.932,0.385-1.178,0.869
	c-0.121,0.31-0.185,0.632-0.207,0.959c-0.587,0.237-0.833,0.954-1.357,1.276c-0.653,0.422-1.093,0.945-1.039,1.698
	c-0.251-0.277-0.475-0.596-0.923-0.596c-0.398,0.17-0.452,0.461-0.296,0.829c-1.998,0.246-3.996,0.497-5.999,0.743l0,0
	c-0.309-0.412-0.623-0.819-0.932-1.231c-0.73,0.184-0.968-0.206-0.985-0.852c-0.148-0.018-0.287,0.004-0.426,0.059l0,0
	c-0.027-0.162-0.041-0.323-0.036-0.484c-2.692,0.596-3.813-1.555-5.309-3.047l0,0c0.179,0.005,0.354,0.01,0.532,0.014
	c1.537-0.564-0.282-1.304,0.099-1.927c0.175-0.184,0.354-0.367,0.529-0.555c-0.104-1.076-0.941-0.413-1.421-0.601l0,0
	c-0.111-0.291-0.229-0.587-0.34-0.878c-1.255,0.927-1.936,2.23-2.424,3.669c-0.354,0.161-0.708,0.322-1.063,0.479
	c-0.39,0.318-0.788,0.596-1.271,0.542c0.013-0.175-0.05-0.39-0.144-0.627c-0.229-0.422-0.229-1.071-0.981-0.955
	c-1.075,0.865-1.062-0.475-1.563-0.774c-0.31,0.014-0.471,0.152-0.466,0.435c-0.107,0.026-0.206,0.071-0.301,0.139
	c-0.443,0.443-0.622,1.106-1.196,1.438c-0.156,0.147-0.305,0.305-0.425,0.483c-0.583,0.878-1.681,1.205-2.339,2.007
	c-0.107-0.367-0.313-0.515-0.654-0.385c-1.6-1.716-2.522-1.676-3.691,0.229c-0.005-0.009-0.005-0.018-0.009-0.027
	c-0.391-0.591-0.784-1.174-0.762-1.926c-0.524-1.568,0.537-2.59,1.268-3.728c0.018-0.242-0.018-0.479-0.13-0.699
	c-0.18-0.175-0.39-0.291-0.632-0.358c-0.488-0.036-0.95,0.076-1.385,0.3c-0.143,0.022-0.269,0.081-0.385,0.157
	c-0.538-0.246-1.008-0.157-1.259,0.878c-0.009,0.045-0.022,0.081-0.036,0.121c-0.197,0.045-0.426,0.026-0.703-0.107
	c-0.569-0.865-1.255-1.582-2.379-1.667c-0.614,0.251-1.295,0.242-1.909,0.488c-0.273,0.22-0.35,0.538-0.457,0.847
	c0.031,0.144-0.004,0.265-0.111,0.363c-0.484,0.811-1.672,1.191-1.479,2.415c0.018,0.054,0.035,0.099,0.049,0.152
	c-0.506,0.144-0.82,0.587-1.205,0.918c-0.018,0.462-0.031,0.919-0.05,1.376c-0.766,0.797-1.532,1.59-2.298,2.388
	c-0.17,0.305-0.345,0.613-0.516,0.918l0,0c-0.381-0.515-0.9-0.622-1.496-0.511c-1.591,0.22-1.6-1.321-2.312-2.078
	c-1.134,0.156-1.649,1.008-2.138,1.891c0.022,0.139,0,0.269-0.071,0.39c-0.775,0.573-1.645,1.035-2.19,1.868
	c-0.022,0.059-0.041,0.116-0.063,0.175c-0.13-0.018-0.26-0.022-0.403,0.009c-0.21,0.09-0.394,0.22-0.542,0.395
	c-0.134,0.255-0.282,0.506-0.403,0.766c-0.219,0.175-0.435,0.354-0.653,0.529l0,0c-0.175,1.2-0.767,2.164-1.685,2.938l0,0l0,0
	c-0.305-0.524-0.605-1.048-0.91-1.568c-0.206,0.148-0.416,0.296-0.622,0.444c-0.261,0.193-0.565,0.368-0.552,0.668
	c-0.022,0.004-0.045,0.009-0.067,0.018c-0.641,0.144-1.12,0.498-1.496,0.99c-0.045-0.054-0.09-0.112-0.135-0.166
	c0.059-0.085,0.112-0.166,0.171-0.26c0.116-1.675-1.349-1.523-2.285-1.98c-0.313-0.699-0.9-1.044-1.6-1.245
	c-1.008-1.054-1.967-1.766-2.486,0.38c0.036,0.197,0.071,0.399,0.107,0.597l0,0c-1.313,1.532-3.082,1.411-4.569-0.31
	c0.004-0.125,0.013-0.251,0.018-0.381c0.04-0.788,0.56-1.904-0.542-2.15c-1.241-0.277-1.953,0.641-2.204,1.842
	c-1.421-0.332-0.694-2.868-2.599-2.702c-0.148-0.107-0.301-0.215-0.448-0.318c-0.354-0.139-0.699-0.111-1.035,0.059
	c-0.107,0.071-0.206,0.147-0.296,0.229c-0.264-0.059-0.528-0.116-0.793-0.175c-0.475,0.031-0.945,0.059-1.42,0.09
	c-0.121,0.08-0.197,0.17-0.242,0.269c-0.197,0.054-0.385,0.135-0.556,0.251c-0.6,0.488-0.766,1.165-0.811,1.891
	c0.009,0.152,0.009,0.3,0.005,0.452l0,0l0,0c-0.148,0.081-0.233,0.202-0.256,0.363c-0.591,0.332-0.99-0.081-1.42-0.367
	c-0.448-0.278-0.892-0.561-1.34-0.838l0,0l0,0c0.269-1.896,0.076-3.732-0.667-5.502c-0.171,0.031-0.337,0.063-0.507,0.094
	c-1.174,1.018-0.21,2.313-0.438,3.45c0.058,0.076,0.098,0.166,0.134,0.256c-0.273,0.184-0.448,0.47-0.502,0.873
	c-0.094,0.063-0.188,0.13-0.286,0.197c-0.027-0.022-0.054-0.045-0.081-0.067c-0.251-0.426-0.345-0.892-0.367-1.375
	c-0.071-1.712-0.883-1.989-2.178-1.326c0-0.242,0-0.488,0-0.73l0,0c-0.134-0.354-0.269-0.708-0.403-1.062
	c-0.381-0.072-0.815-0.05-0.972-0.533l-0.027-0.045c-0.286-0.215-0.568-0.431-0.855-0.646l0,0c-0.188-0.179-0.376-0.362-0.564-0.542
	c-2.285-0.296-1.228-2.334-1.833-3.508v0.036c-0.336-0.247-0.645-0.121-0.949,0.076c-1.627,1.348-2.5,0.184-3.36-1.013
	c-0.17-0.471-0.345-0.941-0.516-1.411c-0.766-0.171-0.923,0.752-1.536,0.855c0.018-0.466,0.031-0.932,0.049-1.398
	c-0.587-0.506-1.555-0.3-1.998-1.07c-0.878-0.269-1.891-0.291-2.374-1.281c0.004-0.05-0.05-0.107-0.152-0.17
	c-0.112-0.067-0.233-0.036-0.372,0.089l-0.027-0.013c-0.914,0.313-1.814,0.649-2.32,1.567c-0.493,0.86-1.094,1.676-1.12,2.725
	c-0.005,0.089,0,0.179,0,0.269c-0.31-0.04-0.618,0.04-0.923,0.282c-0.045,0.094-0.072,0.188-0.09,0.287
	c-0.201-0.238-0.305-0.507-0.22-0.847l-0.035-0.059c0.004-0.054-0.063-0.104-0.197-0.152c-0.031-0.014-0.067-0.014-0.099-0.009
	c-0.099-1.089-0.52-1.922-1.752-2.119c-0.869,0.322-0.985,1.209-1.411,1.868c-0.081,0.229-0.206,0.403-0.354,0.556
	c-0.743,0.246-1.599,0.143-2.294,0.546c-0.161,0.059-0.224,0.162-0.196,0.301c-0.815,0.242-0.865-1.094-1.685-0.843
	c-0.076,0.126-0.14,0.251-0.188,0.39c0.031,0.372,0.063,0.744,0.094,1.116l0,0l0,0c-0.192,0.121-0.385,0.241-0.578,0.362
	c-0.21-0.783-0.206-1.742-0.672-2.316c-1.51-1.85-3.629-3.226-4.27-5.726c-0.018-0.071-0.112-0.121-0.17-0.179
	c-0.686-0.386-1.309-0.116-1.936,0.09c1.058-2.747-0.95-3.786-2.531-5.063c0.004-0.026,0.014-0.054,0.018-0.085
	c0.471-1.546-0.771-2.805-0.717-4.278c-0.363-2.124-1.461-1.188-2.473-0.587c-0.663,0.144-1.192,0.627-1.855,0.762
	c-0.757-0.771-1.733-1.385-1.886-2.594c-0.829-0.327-1.246,0.277-1.747,0.689c-0.91-0.636-1.435,0.547-2.183,0.663
	c-0.717,0.107-1.057,1.492-2.065,0.614c0.036-1.076-1.707-0.175-1.55-1.39c-1.151-0.251-1.877,0.39-2.509,1.21
	c-0.332,0.251-0.35,0.578-0.22,0.94c0.027,0.014,0.05,0.027,0.076,0.036c-1.115,0.462-1.877,1.224-2.052,2.474
	c0.014,0.147-0.022,0.282-0.099,0.403c-0.197,0.147-0.242,0.326-0.126,0.546c0.036,0.014,0.067,0.027,0.104,0.036
	c-0.995,0.807-2.209,1.389-2.679,2.715c-0.067,0.152-0.135,0.3-0.197,0.448c-0.273,0.197-0.547,0.398-0.82,0.596
	c-0.188,0.112-0.376,0.229-0.564,0.341c-0.031,0.175-0.067,0.354-0.099,0.528l0,0c-1.053,0.144-2.069,0.135-2.921-0.632
	l-0.059-0.045c-0.152,0.206-0.206,0.408-0.179,0.605c-0.484-0.045-0.941-0.202-1.394-0.381c-0.533,0.035-0.753,0.39-0.865,0.851
	c-0.049,0.462-0.098,0.928-0.152,1.39c-0.103,0.004-0.206,0.004-0.309,0.004c-1.546-0.381-2.805,0.059-3.795,1.295
	c-0.699,0.363-0.86-0.601-1.425-0.573c-0.269,0.17-0.452,0.362-0.568,0.56c-0.121-0.291-0.31-0.556-0.583-0.793
	c-0.13-0.336-0.26-0.667-0.385-1.003c-0.524-0.337-1.018-0.206-1.501,0.094c-0.91,0.632-1.357,1.456-1.201,2.531
	c-1.12-0.395-2.263-0.421-3.432-0.049c-0.147-0.171-0.291-0.341-0.439-0.511c0.032-0.471,0.063-0.941,0.095-1.412
	c-0.237-0.663,0.21-1.469-0.417-2.056c-0.354,0.022-0.601,0.269-0.878,0.457c-0.157,0.004-0.31-0.036-0.448-0.086
	c-0.547-0.39-1.29-0.147-1.851-0.523c-0.618,0.076-0.869-0.466-1.281-0.744c-0.009-0.147-0.009-0.3-0.009-0.448
	c-0.506-0.734-1.058-1.308-1.949-0.479c-0.757,0.815-2.598-0.058-2.719,1.743c-0.031,0.107-0.059,0.215-0.09,0.322
	c-0.188,0.668-0.237,1.336-0.067,2.017c0.014,0.04,0.022,0.08,0.036,0.121c-0.13,0.22-0.233,0.452-0.318,0.689
	c-0.13,0.229-0.233,0.471-0.287,0.726c-0.797-0.475-1.608-0.345-2.424,0.076c-0.049-0.533-0.685-0.47-1.03-0.703
	c-0.318-0.35-0.636-0.699-0.954-1.048c-0.909,0.286-1.425-0.117-1.801-0.762c0.175-0.157,0.358-0.31,0.542-0.462
	c-0.031-0.395-0.225-0.649-0.618-0.743c-0.161-0.05-0.323-0.095-0.488-0.144c-0.35-0.336-0.408-1.17-1.219-0.708
	c-0.095,0.166-0.188,0.331-0.282,0.497c-1.563-1.143-3.127-2.441-4.588,0.126c-0.085,0.196-0.144,0.403-0.18,0.613
	c-0.604-0.13-1.124-0.646-1.778-0.582l0,0c-0.161-0.045-0.318-0.041-0.475,0.018l0,0c-1.456-0.363-1.317-1.814-1.891-2.782
	c-0.381-0.121-0.888-0.461-1.129-0.327c-2.231,1.241-3.172-0.313-4.158-1.818c-0.255,0.031-0.488,0.125-0.694,0.282
	c-0.604,0.609-0.726,1.308-0.39,2.097c0.036,0.058,0.085,0.107,0.125,0.161c-0.3,0.229-0.6,0.457-0.896,0.686
	c-0.641,0.452-0.995,0.99-0.507,1.765c0.126,0.148,0.261,0.27,0.417,0.332c-0.004,0.103-0.014,0.206-0.022,0.305v0.004
	c-0.103,0.117-0.197,0.242-0.286,0.368c-0.032-0.422-0.135-0.829-0.403-1.206c-0.587-0.412-0.941-0.139-1.196,0.413
	c-0.538,0.479-1.08,0.963-1.617,1.442c-0.22,0.551-0.637,0.546-1.103,0.385c-0.184,0.287-0.367,0.574-0.551,0.86
	c-0.278-0.014-0.556-0.026-0.834-0.045l0,0c-0.063-0.296-0.125-0.591-0.188-0.887c-1.264-0.336-2.389,0.026-3.441,0.708l0.005-0.005
	c-0.009-0.134-0.031-0.269-0.067-0.398l0,0c0.126-0.081,0.251-0.166,0.363-0.269c0.085-0.807-0.148-1.641-0.883-1.855
	c-1.474-0.426-1.425-1.572-1.586-2.675c-0.144-0.175-0.291-0.349-0.435-0.523c-0.475-0.457-1.228-0.471-1.631-1.035
	c-0.121-0.166-0.242-0.332-0.358-0.497c-1.681,0.721-2.616-0.945-3.979-1.241c-0.466-0.242-1.106-0.085-1.442-0.632
	c0.018-0.663-0.587-0.735-0.968-1.017c-0.412,0.286-0.542,0.653-0.578,1.048c-0.104,0.076-0.206,0.152-0.31,0.233
	c-0.272,0.219-0.528,0.452-0.774,0.703c-0.313,0.417-0.771,0.703-1.058,1.143c-0.009,0-0.018-0.005-0.031-0.005
	c-0.762,0.479-1.483,1.021-2.28,1.438c-0.556,0.466-1.237,0.833-1.309,1.676c0.005,0.229,0.05,0.435,0.152,0.609
	c-0.036,0.009-0.071,0.018-0.112,0.022c-0.139,0.12-0.255,0.255-0.354,0.402c-0.166-0.385-0.457-0.676-0.887-0.855
	c-1.098-0.282-2.191-0.318-3.293-0.014c-0.695,0.386-1.34,0.815-1.443,1.703c0.041,0.063,0.081,0.13,0.121,0.197
	c-0.896,0.354-1.035,0.958-0.677,1.725c-0.125-0.036-0.255-0.059-0.394-0.05c-1.653,0.767-2.778,2.353-4.552,2.939
	c-0.05-0.009-0.099-0.018-0.148-0.027c0.014-0.286,0.027-0.577,0.04-0.864c-0.488,0.076-0.752,0.35-0.927,0.708
	c-0.13-0.009-0.26-0.014-0.39,0.004c-0.135,0.022-0.265,0.059-0.39,0.104c-0.193-0.483-0.22-1.008-0.233-1.532
	c-0.708-0.538-0.327-1.313-0.43-1.984c-0.798,1.191-0.381,2.616-0.758,3.889l0,0c-0.296-0.014-0.591-0.027-0.883-0.04
	c-0.864,1.68-1.742,1.079-2.62,0.013c-0.045-0.34-0.216-0.426-0.516-0.26c-0.031,0.04-0.054,0.081-0.081,0.116
	c-1.187-0.331-1.559,1.031-2.459,1.282c-0.157,0.192-0.26,0.407-0.31,0.649c0.014,0.08,0.022,0.166,0.036,0.246
	c-0.273,0.421-0.381,0.852-0.099,1.313c-0.036,0.045-0.071,0.09-0.103,0.14c-0.166,0.317-0.251,0.653-0.242,1.012
	c0.009,0.166,0.045,0.318,0.09,0.471c-0.686-0.13-1.438,0.354-2.133,0.296c-1.828-1.761-3.078-0.681-4.311,0.483
	c0.126-0.488-0.224-0.842-0.708-1.164c-0.196-0.067-0.39-0.13-0.582-0.188c0.022-0.578,0.305-1.147,0.211-1.725
	c-0.561-0.332-1.004-1.063-1.819-0.547c-1.098,1.321-2.737,1.12-4.176,1.487c-0.035-0.277-0.076-0.551-0.111-0.829
	c-1.707,0.063-3.083,0.981-4.512,1.757c-0.296-0.341-0.592-0.686-0.888-1.026c-0.407,0.556-0.703,1.335-1.644,0.838
	c-0.144,0.022-0.282,0.005-0.417-0.059c-0.192-0.461-0.614-0.506-1.03-0.568c-1.094-0.426-1.855,1.72-3.064,0.394
	c-0.117-0.184-0.27-0.237-0.471-0.143c-0.341,0.165-0.686,0.331-1.026,0.497l-0.004-0.005c-0.076-0.663,0.139-1.38-0.346-1.976
	c-0.255-0.354-0.596-0.367-0.968-0.232c-0.12,0-0.241,0.004-0.362,0.004c-0.22-0.175-0.476-0.313-0.713-0.466
	c-0.309-0.116-0.613-0.18-0.887,0.085c-0.022,0.126-0.071,0.233-0.152,0.327c-0.282,0.13-0.322,0.269-0.135,0.421
	c-0.757-0.376-1.863-0.022-2.32-1.03c-0.139-0.197-0.282-0.398-0.421-0.596c-0.121,0.018-0.242,0.031-0.358,0.049
	c-0.01,0.005-0.014,0.01-0.019,0.014c-0.394-0.398-0.784-0.802-1.178-1.2c-0.336-0.014-0.614,0.658-0.995,0.08
	c-0.914-0.022-1.913-0.201-1.814,1.264c0.081,1.219-0.568,0.784-1.12,0.551c-0.004-0.121-0.035-0.232-0.099-0.34
	c0.318-0.511,0.081-0.874-0.483-1.143c-0.395-0.206-0.789-0.412-1.188-0.614c0.076-0.054,0.152-0.107,0.215-0.179
	c0.883-1.129,0.511-2.339,0.215-3.54c-0.165-1.133-0.52-2.123-1.81-2.41c-0.564-0.52-0.878-1.402-1.877-1.295
	c-0.466-0.511-0.699-1.241-1.421-1.51c-0.523,0.135-0.994,0.341-1.195,0.905l0,0c-0.457,0.211-0.422,0.646-0.476,1.039
	c-1.058-0.708-2.173-1.155-3.477-0.824l0,0c-1.648,0.121-2.975-0.313-3.53-2.061c-0.225-0.175-0.448-0.35-0.672-0.52
	c-0.318-0.107-0.592-0.054-0.838,0.099c0.232-0.391,0.269-0.812,0.121-1.264c-0.564-0.533-0.869-1.434-1.681-1.604
	c0.014-0.466-0.156-0.9-0.282-1.339c-0.282-1.071-0.892-1.819-2.029-2.043c-0.018,0-0.036,0.004-0.054,0.004
	c-0.022-0.049-0.04-0.103-0.063-0.152c-1.009-1.326-2.29-2.303-3.822-2.952c-0.443-0.081-0.86-0.045-1.223,0.192
	c-0.014-0.014-0.027-0.026-0.04-0.045c-0.027-0.004-0.054-0.013-0.081-0.022c0.014-0.452-0.175-0.824-0.528-1.124
	c-0.937-0.659-2.344-0.005-3.114-1.12c-0.689-0.443-1.191-1.232-2.105-1.264c-0.031-0.094-0.067-0.184-0.116-0.269
	c-0.399-0.479-0.973-0.686-1.506-0.959c-0.721-0.322-1.761,0.322-2.24-0.726c-0.139-0.18-0.305-0.345-0.502-0.471
	c-1.093-0.779-2.298-1.129-3.646-0.923c0.063-0.564,0.161-1.138-0.556-1.505c-0.658-1.224-1.904-0.601-2.85-0.892
	c-0.416-0.005-0.819,0.066-1.205,0.237c-0.111,0.04-0.215,0.085-0.313,0.139c-0.26-0.067-0.516-0.139-0.775-0.206
	c-0.963-0.09-1.976-0.35-2.688,0.547c-0.059-0.036-0.117-0.067-0.175-0.104c-0.009,0-0.014,0-0.022,0
	c-0.345-0.937-1.515-0.937-2.173-1.51c-0.242-0.045-0.488-0.081-0.735-0.103c-0.771-0.104-1.604-0.524-2.213,0.206
	c-0.071,0.009-0.139,0.018-0.211,0.031c-0.004,0-0.013,0.004-0.018,0.009c-0.018-0.027-0.026-0.054-0.049-0.081
	c-0.202-0.179-0.431-0.296-0.694-0.35c-1.532,0.175-3.109-0.018-4.593,0.556c-0.945,0.336-1.927,0.233-2.903,0.26
	c-2.204,0.059-4.323-0.658-6.519-0.645c-0.237-0.009-0.475-0.009-0.717,0.026c-0.466,0.059-0.9-0.094-1.344-0.156
	c-0.233-0.019-0.462-0.014-0.69,0.026c-0.739,0.237-1.631-0.045-2.24,0.637c-0.694-1.179-1.451-2.169-2.983-0.914
	c-0.019,0.076-0.022,0.152-0.027,0.224c-0.018-0.018-0.031-0.036-0.058-0.054c-0.054-0.04-0.112-0.031-0.175,0.009
	c-0.045-0.121-0.121-0.224-0.242-0.313c-0.73-0.17-1.456-0.34-2.187-0.511c-0.184-0.107-0.376-0.21-0.556-0.331
	c-0.677-0.144-1.245-0.479-1.716-0.973c-0.39-0.246-0.807-0.438-1.188-0.694c-0.855-0.421-1.608-1.021-2.518-1.335
	c-0.188-0.072-0.376-0.144-0.564-0.22c-0.251-0.511-0.699-0.641-1.228-0.618c-0.063,0.014-0.116,0.045-0.175,0.067
	c-0.152-0.054-0.305-0.107-0.457-0.157c-0.22-0.905-0.847-1.151-1.806-0.855c-0.094,0.085-0.184,0.166-0.277,0.251
	c-0.682,0.905-1.537,0.242-2.313,0.251c-0.475,0.004-1.124-0.381-1.361,0.215c-1.196,3.037-1.6,0.071-2.339-0.287
	c-1.873,0.27-3.75,0.529-5.081,2.079c-0.246-0.215-0.533-0.229-0.824-0.22c0.005-0.116-0.071-0.197-0.241-0.232
	c-0.108-0.005-0.206-0.031-0.305-0.067c0.031-0.036,0.063-0.067,0.089-0.107c0.166-2.102-1.555-1.909-2.795-2.29
	c-0.462-0.152-0.883-0.111-1.282,0.022V118.5H611.987z M437.68,84.476c0.031,0.045,0.063,0.081,0.094,0.116
	C437.742,84.557,437.706,84.516,437.68,84.476C437.68,84.472,437.68,84.476,437.68,84.476z M233.022,66.905
	c0.035,0.125,0.063,0.251,0.089,0.372c-0.018,0.036-0.035,0.071-0.054,0.112c0-0.005-0.004-0.014-0.004-0.019
	C232.763,67.532,233.026,67.003,233.022,66.905z M27.433,39.526c0.01-0.014,0.014-0.026,0.022-0.045
	c0.01,0.005,0.014,0.01,0.022,0.014C27.478,39.5,27.433,39.526,27.433,39.526c-0.013,0.019-0.018,0.036-0.026,0.054
	c-0.019-0.013-0.036-0.026-0.059-0.045C27.375,39.535,27.406,39.535,27.433,39.526z"/>
</svg>
